<svg width="21" height="21" viewBox="0 0 21 21" fill="none" xmlns="http://www.w3.org/2000/svg">
<path d="M18.5619 10.097L20.0929 12.75C21.0599 14.424 20.4859 16.565 18.8129 17.531C18.2799 17.838 17.6769 18 17.0629 18H14.9999V20.5L9.99995 17L14.9999 13.5V16H17.0619C17.3249 16 17.5839 15.93 17.8119 15.799C18.5299 15.385 18.7749 14.467 18.3619 13.75L16.8299 11.097L18.5619 10.097ZM6.30395 7.134L6.83395 13.214L4.66995 11.964L3.63895 13.75C3.50695 13.978 3.43795 14.237 3.43795 14.5C3.43795 15.328 4.10895 16 4.93795 16H7.99995V18H4.93795C3.00495 18 1.43795 16.433 1.43795 14.5C1.43795 13.886 1.59995 13.282 1.90695 12.75L2.93695 10.963L0.772949 9.714L6.30295 7.134H6.30395ZM12.7499 0.969003C13.2819 1.276 13.7239 1.718 14.0309 2.25L15.061 4.035L17.2269 2.785L16.6969 8.866L11.1649 6.286L13.3299 5.036L12.2989 3.25C12.1669 3.022 11.9779 2.833 11.7499 2.701C11.0329 2.287 10.1149 2.533 9.70095 3.25L8.16895 5.903L6.43695 4.903L7.96995 2.25C8.93595 0.576003 11.077 0.00200328 12.7509 0.969003H12.7499Z" fill="#1ED760"/>
</svg>
